PathFileType	4	(X/Y/Z)	C:\Users\WrightLab\Desktop\Jo\P3_25.trc
DataRate	CameraRate	NumFrames	NumMarkers	Units	OrigDataRate	OrigDataStartFrame	OrigNumFrames
100.00	100.00	       21	19	mm	100.00	432	       575
Frame#	Time	Headset_Front			Headset_Back			Headset_Left			Headset_Right			Left_Shoulder			Right_Shoulder			Sternum			C7			Left Elbow			Right Elbow			Left Wrist			Right Wrist			Left ASIS			Right ASIS			S2			Left Knee			Right Knee			Left Ankle			Right Ankle			
		X1	Y1	Z1	X2	Y2	Z2	X3	Y3	Z3	X4	Y4	Z4	X5	Y5	Z5	X6	Y6	Z6	X7	Y7	Z7	X8	Y8	Z8	X9	Y9	Z9	X10	Y10	Z10	X11	Y11	Z11	X12	Y12	Z12	X13	Y13	Z13	X14	Y14	Z14	X15	Y15	Z15	X16	Y16	Z16	X17	Y17	Z17	X18	Y18	Z18	X19	Y19	Z19	

432	4.310	-226.63028	1572.60913	2223.56665	-22.26421	1621.01880	2228.92847							80.13219	1386.68469	2286.91382	128.44151	1056.79211	2360.78564	-127.52814	1269.77905	2222.05884							-55.16139	1328.26794	1861.74121	42.68599	882.13611	2437.08960				-37.04831	914.60638	2309.39941	-253.15837	959.01483	2206.45361				-64.36443	520.78528	2412.57788	-124.23920	476.01285	2151.56689	-33.10565	194.35771	2467.27100	-34.30128	154.64215	2088.13794	
433	4.320	-230.45271	1572.11230	2225.24976	-26.34365	1620.68225	2235.08374							74.92951	1385.78540	2295.06763	122.26951	1056.49023	2369.48120	-131.28787	1269.47595	2226.00220							-56.26674	1329.26501	1871.82654	35.26246	881.54120	2444.16260				-41.97206	913.62744	2314.75244	-252.82147	957.46313	2205.29761				-70.04098	520.08960	2416.96973	-125.26961	475.65891	2152.78809	-45.63297	195.20366	2478.80078	-34.51910	154.89708	2088.50586	
434	4.330	-234.15964	1571.75000	2228.71655	-30.31217	1620.41882	2241.39771							69.41504	1385.52039	2303.57593	115.97102	1056.25867	2378.64771	-135.00746	1269.02490	2230.13501							-57.49759	1330.06763	1881.35229	28.29262	880.20117	2449.87573				-47.30029	913.50299	2320.12598	-252.38744	955.34985	2204.64160				-75.51266	520.43835	2422.47778	-127.42550	475.38406	2155.29126	-57.57093	196.06319	2489.43408	-35.02125	155.35214	2089.07520	
435	4.340	-237.72124	1571.20569	2229.56299	-34.23994	1620.01404	2247.05640							63.49278	1385.61743	2312.65747	109.23155	1056.17700	2388.30884	-138.66634	1268.21777	2233.45776							-59.11603	1330.56030	1889.63623	20.61303	879.61707	2456.56616				-52.70604	913.32361	2325.55566	-251.49402	953.94086	2203.70361				-81.42919	519.92322	2426.53442	-129.27408	474.91092	2158.10498	-68.70174	198.11497	2499.49609	-35.20419	155.80350	2089.39868	
436	4.350	-241.54668	1571.31653	2233.12939	-38.44669	1619.88818	2253.36206							58.08261	1385.30286	2320.44727	102.37143	1056.01025	2397.21484	-142.40222	1267.56665	2236.68237							-60.13042	1331.94995	1899.80261	12.72062	878.80847	2463.00269				-57.82759	912.23004	2330.49976	-250.60629	952.34119	2202.97119				-86.90031	520.09747	2431.83643	-130.58539	474.66415	2159.26025	-78.93537	198.66548	2508.21606	-35.68961	156.30144	2089.89697	
437	4.360	-245.78241	1570.67175	2234.96094	-42.86663	1619.73669	2259.70459							52.18594	1384.81287	2328.71631	95.26052	1054.82178	2405.73438	-145.96637	1267.04407	2240.90552							-61.12667	1332.98376	1909.29248	4.91395	877.67206	2468.85815				-63.37541	912.09174	2335.88477	-249.35471	950.46533	2201.30762				-93.18624	519.34912	2435.93359	-132.44296	474.07452	2161.58325	-88.44446	198.24896	2515.34277	-35.84599	156.83241	2090.13574	
438	4.370	-248.91930	1570.01367	2237.08472	-47.01715	1619.54163	2265.52100							46.13795	1384.44812	2337.29712	88.10507	1054.09106	2413.14990	-149.82756	1266.11084	2244.54492							-62.86568	1333.02014	1918.05310	-2.96106	876.45313	2474.70044				-68.76262	911.78186	2341.61743	-247.93161	947.76239	2200.14502				-99.50196	518.53345	2439.94360	-134.14063	473.69809	2164.56934	-97.56672	198.65721	2521.81567	-35.70254	156.76384	2090.50122	
439	4.380				-51.49456	1619.55371	2271.70068							40.08050	1383.62195	2345.70459	80.91071	1053.98596	2422.46460	-153.53230	1265.70520	2247.87891										-11.00340	875.46277	2480.30908				-73.98705	911.36053	2346.33765	-246.12926	945.87823	2198.22900				-105.54453	518.31366	2444.63574	-135.33125	473.39618	2166.34863	-104.83894	197.06201	2525.62598	-35.74502	156.90784	2090.51245	
440	4.390				-56.05599	1619.55530	2277.78394							33.76492	1383.29944	2353.78955	73.29947	1053.59680	2431.78003	-157.13164	1265.39734	2251.77271										-19.32570	874.63043	2485.75220				-79.14130	910.71735	2351.70386	-244.34444	943.34363	2196.56641				-112.33368	517.46594	2448.27051	-137.18179	472.52444	2168.57446	-111.47503	196.03391	2529.51855	-35.81910	157.03157	2090.55322	
441	4.400				-60.45331	1619.23584	2283.60522							27.47476	1383.07910	2361.74023	65.81231	1052.89465	2438.93604	-160.88084	1265.10144	2255.79321										-27.65616	873.53229	2490.89771				-84.28481	909.51660	2356.62500	-242.48137	940.79657	2194.35400				-119.42984	516.57629	2451.26147	-138.92232	472.00446	2171.34790	-115.79345	194.95053	2533.04150	-35.77180	157.27762	2090.54272	
442	4.410				-64.94597	1619.09973	2289.40747							21.50496	1382.52148	2369.53296	58.28402	1052.39233	2447.71899	-164.64355	1264.17468	2259.51221										-36.51006	872.76392	2496.38721				-89.68036	909.11725	2361.59326	-239.85233	937.57025	2191.67651				-125.96378	515.58008	2454.29761	-140.11224	471.57291	2173.43408	-120.19646	193.59758	2534.53320	-35.88358	157.66151	2090.71558	
443	4.420	-0.66053	1429.02393	2183.86401	-69.69168	1618.84436	2295.21558							15.01875	1382.47034	2378.08594	50.79469	1051.99048	2455.59888	-168.00294	1263.30469	2262.80713				50.01637	973.99756	2166.58765				-44.83250	871.28198	2500.66431				-95.03408	908.85370	2366.99121	-237.51309	935.48877	2190.13379				-132.39981	514.45905	2457.99756	-141.91260	470.91086	2176.04712	-122.58536	191.42978	2535.61206	-36.46017	159.25606	2091.62231	
444	4.430	-2.84954	1428.99609	2191.75732	-74.36162	1618.79736	2301.14771							8.49629	1381.90942	2386.32837	42.94301	1051.14893	2463.54590	-171.80553	1263.25964	2267.12744				48.53810	974.28589	2175.00220				-53.47999	870.25183	2505.11890				-100.46796	907.71979	2371.84668	-234.66180	932.33948	2187.53296				-138.19637	513.11505	2461.17310	-143.71631	470.81735	2178.34839	-124.96060	190.29422	2537.90186	-36.55338	160.04573	2092.07983	
445	4.440	-5.46520	1427.93726	2198.59058	-79.31704	1618.90503	2306.86475							1.62024	1381.15613	2394.35889	35.26215	1050.94543	2471.80786	-175.57436	1262.88281	2271.06665				47.55910	974.20642	2185.12769				-62.56982	869.75555	2509.55591				-105.57357	907.12402	2377.40234	-232.42818	929.52490	2184.67334				-143.84909	511.57629	2464.06641	-144.87332	470.78470	2179.86670	-127.61869	187.53679	2536.56494	-36.74274	160.75636	2092.73657	
446	4.450	-8.23445	1427.87708	2205.23755	-84.06616	1619.16772	2312.65991							-5.15004	1380.65723	2402.15015	26.49975	1050.22998	2480.00659	-179.03868	1262.26685	2274.34888				46.46665	974.48505	2193.83960				-71.80435	868.79388	2513.90698				-111.17840	906.41541	2382.77612							-148.88499	509.83508	2466.88989	-145.89282	470.59445	2181.62744	-129.96321	186.47131	2537.01270	-36.70795	161.18553	2092.69385	
447	4.460	-10.43428	1427.92139	2213.11255	-88.63471	1619.17847	2317.72461							-12.25739	1380.64331	2411.23804	18.62100	1049.84607	2488.54907	-182.97864	1262.28308	2278.97021				44.71798	974.45441	2203.42041				-80.33697	867.52197	2517.53076				-116.41640	905.53009	2388.13745							-153.56544	509.21835	2470.02319	-147.19125	470.18390	2183.59619	-133.74513	184.34468	2536.51074	-36.24774	160.77341	2093.95093	
448	4.470	-12.83400	1428.07129	2220.35352	-93.68304	1620.38086	2323.09033							-19.48712	1380.51233	2418.53662	9.52327	1049.54822	2496.85425	-186.30641	1261.66528	2282.94434										-89.28269	866.59656	2521.22583				-121.25964	905.46936	2393.64063							-158.23462	507.14551	2471.14429	-148.11449	469.95932	2184.92676	-135.22881	183.96693	2537.14771	-36.12340	161.09137	2093.86011	
449	4.480	-15.44462	1428.93689	2228.78638	-98.54630	1620.98193	2328.48242							-27.04694	1380.65161	2427.06055	1.09342	1049.13000	2504.48657	-190.29749	1262.13477	2286.96655				42.26640	975.21924	2222.23340	-259.67209	853.87842	2063.58936	-98.08195	865.83148	2524.36475				-126.45734	905.46765	2398.33130							-163.10178	508.14438	2475.26001	-149.04799	469.97763	2186.46167	-136.54457	183.50934	2537.42285	-36.17548	161.35533	2093.95581	
450	4.490	-18.20712	1429.84875	2237.12891	-103.50230	1622.39124	2333.98389							-34.42979	1380.98999	2434.63916	-8.19189	1049.82935	2513.54443	-194.02953	1265.22229	2294.25391				40.48481	976.16351	2230.61816	-253.96645	852.63568	2064.14307	-106.98233	865.65790	2528.02588				-131.32132	905.59515	2403.54492							-168.37354	507.54062	2477.00171	-149.79234	470.11310	2188.56763	-137.86623	182.84619	2537.31592	-36.16037	161.88214	2095.17334	
451	4.500	-20.80009	1430.75391	2245.14868	-108.19506	1623.24988	2338.55566							-42.34107	1381.83105	2442.66382	-17.50009	1050.32092	2520.60913	-197.77829	1265.08875	2297.85962				39.12583	977.48322	2239.44214	-247.79227	851.30652	2063.98901	-115.54856	866.23358	2531.58301				-136.13304	906.55341	2409.71411							-173.29073	507.63333	2480.91650	-150.74174	470.07767	2191.14917	-139.47989	182.70366	2537.27417	-37.12286	164.28076	2094.59351	
452	4.510	-23.99120	1431.84534	2253.58545	-113.58109	1624.53064	2344.04297							-50.22961	1383.32690	2450.16528	-27.28234	1051.19519	2528.35376	-201.13126	1265.76001	2301.37817				36.91553	978.88599	2247.07886	-242.37578	850.65863	2064.65405	-123.97984	866.29333	2535.27319				-140.90544	907.55194	2414.11792							-177.36980	508.27548	2482.88550	-151.95680	470.24918	2193.33398	-140.96968	182.42433	2538.06958	-36.79867	165.27426	2095.97754	
